# xmcd
#
# Track frame offsets: 
#        150
#        10423
#        28310
#        51082
#        74882
#        94716
#        108671
#        119526
#        143188
#        153710
#
# Disc length: 2235 seconds
#
# Revision: 0
# Processed by: cddbd v1.5.2PL0 Copyright (c) Steve Scherf et al.
# Submitted via: ExactAudioCopy v0.99pb3
#
DISCID=9808b90a
DTITLE=James Brown - LIVE Chastian Park 
DYEAR=1985
DGENRE=Soul
TTITLE0=Get Up Offa That Thang
TTITLE1=Please Please Please
TTITLE2=It's A Man's World
TTITLE3=Georgia
TTITLE4=Try Me
TTITLE5=Get On The Good Foot
TTITLE6=Papa's Got A Brand New Bag
TTITLE7=It's Too Funky In Here
TTITLE8=Prisonner Of Love
TTITLE9=I Feel Good
EXTD=
EXTT0=
EXTT1=
EXTT2=
EXTT3=
EXTT4=
EXTT5=
EXTT6=
EXTT7=
EXTT8=
EXTT9=
PLAYORDER=
